<?xml version="1.0" standalone="no"?> <!DOCTYPE svg PUBLIC "-//W3C//DTD SVG 1.0//EN" "http://www.w3.org/TR/2001/REC-SVG-20010904/DTD/svg10.dtd" > <svg xmlns="http://www.w3.org/2000/svg" width="100%" height="100%">
<defs >
<font id="allerdisplay" horiz-adv-x="572" ><font-face
    font-family="Aller Display"
    units-per-em="1000"
    panose-1="2 0 5 3 0 0 0 2 0 3"
    ascent="924"
    descent="-243"
    alphabetic="0" />
<missing-glyph horiz-adv-x="500" />
<glyph unicode=" " glyph-name="space" horiz-adv-x="220" />
<glyph unicode="!" glyph-name="exclam" horiz-adv-x="302" d="M62 719Q86 723 108 724T151 725Q171 725 193 724T240 719L231 253Q206 248 187 246T151 244Q120 244 71 253L62 719ZM151 177Q171 177 191 175T235 169Q238 146 240 126T242 86Q242 67 240 46T235
2Q212 -2 192 -4T151 -6Q131 -6 111 -4T67 2Q64 25 62 46T60 86Q60 105 62 125T67 169Q90 173 110 175T151 177Z" />
<glyph unicode="&quot;" glyph-name="quotedbl" horiz-adv-x="456" d="M40 717Q57 721 79 723T118 725Q135 725 157 723T196 717V428Q179 424 157 422T118 420Q101 420 79 422T40 428V717ZM260 717Q277 721 299 723T338 725Q355 725 377 723T416 717V428Q399 424
377 422T338 420Q321 420 299 422T260 428V717Z" />
<glyph unicode="#" glyph-name="numbersign" horiz-adv-x="699" d="M388 198H289L276 31Q256 27 241 26T208 25Q193 25 177 26T141 31L155 198H50Q48 214 47 228T45 256Q45 271 46 285T50 316H165L174 426H69Q63 457 63 485Q63 500 64 514T69 544H184L196 688Q216
692 231 693T264 694Q280 694 296 693T330 688L318 544H417L429 688Q449 692 464 693T496 694Q512 694 528 693T563 688L551 544H648Q651 528 652 515T654 487Q654 457 648 426H541L532 316H630Q632 300 633 286T635 258Q635 244 634 229T630 198H522L509 31Q490
27 474 26T442 25Q425 25 409 26T375 31L388 198ZM299 316H398L407 426H308L299 316Z" />
<glyph unicode="$" glyph-name="dollar" horiz-adv-x="585" d="M238 -11Q209 -11 185 -9T137 -1T90 12T40 31Q44 67 53 104T77 183Q124 163 162 154T235 144Q285 144 312 160T339 212Q339 243 316 259T258 290L205 312Q175 325 148 341T102 379T71 432T59 505Q59
593 106 645T238 713V803Q254 808 270 809T297 811Q308 811 324 810T356 803V716Q391 712 426 703T502 680Q495 613 461 538Q427 553 394 563T309 573Q296 573 284 572T261 565T244 550T237 524Q237 495 257 481T302 457L358 436Q392 423 422 407T475 367T511 308T525
222Q525 141 482 83T356 2V-116Q341 -121 325 -122T297 -124Q286 -124 270 -123T238 -116V-11Z" />
<glyph unicode="%" glyph-name="percent" horiz-adv-x="1016" d="M280 505Q280 551 267 578T225 605Q196 605 183 578T170 505Q170 460 183 432T225 404Q254 404 267 432T280 505ZM33 505Q33 546 44 584T79 653T139 701T225 719Q274 719 310 701T370 653T405 585T417
505Q417 464 406 426T370 357T310 309T225 291Q175 291 139 309T80 357T45 425T33 505ZM378 2Q361 -1 342 -2T304 -4Q288 -4 270 -4T225 2L638 709Q655 712 674 713T712 715Q728 715 746 715T791 709L378 2ZM846 203Q846 249 833 276T791 303Q762 303 749 276T736
203Q736 158 749 130T791 102Q820 102 833 130T846 203ZM599 203Q599 244 610 282T645 351T705 399T791 417Q840 417 876 399T936 351T971 283T983 203Q983 162 972 124T936 55T876 7T791 -11Q741 -11 705 7T646 55T611 123T599 203Z" />
<glyph unicode="&amp;" glyph-name="ampersand" horiz-adv-x="724" d="M569 609Q585 614 618 611V475H711Q716 456 717 441T718 410Q718 393 717 378T711 341H618V243Q618 180 597 133T535 53T438 5T311 -11Q259 -11 210 1T123 39T61 108T38 211Q38 243 46 272T67
325T98 368T135 400Q107 423 87 458T66 542Q66 589 83 624T132 683T204 719T292 731Q322 731 360 727T441 706Q443 669 433 637T402 576Q364 590 340 593T299 596Q263 596 247 578T231 537Q231 511 246 493T298 475H463L569 609ZM326 135Q366 135 391 147T430 178T450
223T456 275V341H314Q270 341 245 312T219 238Q219 191 245 163T326 135Z" />
<glyph unicode="&apos;" glyph-name="quotesingle" horiz-adv-x="236" d="M40 717Q57 721 79 723T118 725Q135 725 157 723T196 717V428Q179 424 157 422T118 420Q101 420 79 422T40 428V717Z" />
<glyph unicode="(" glyph-name="parenleft" horiz-adv-x="367" d="M50 305Q50 385 59 454T84 582T120 689T164 773Q178 778 201 780T244 782Q263 782 289 779T337 771Q325 750 306 709T267 607T235 471T221 305Q221 216 234 140T267 3T305 -98T337 -161Q315 -166
289 -169T244 -172Q224 -172 201 -170T164 -163Q141 -127 121 -79T84 27T59 155T50 305Z" />
<glyph unicode=")" glyph-name="parenright" horiz-adv-x="367" d="M317 305Q317 225 308 156T283 28T247 -79T203 -163Q189 -168 166 -170T123 -172Q104 -172 78 -169T30 -161Q42 -140 61 -99T100 3T132 139T146 305Q146 394 133 470T100 607T62 708T30 771Q52
776 78 779T123 782Q143 782 166 780T203 773Q226 737 246 689T283 583T308 455T317 305Z" />
<glyph unicode="*" glyph-name="asterisk" horiz-adv-x="464" d="M416 615Q430 592 437 568T448 524L326 472L398 358Q381 341 361 327T318 301L232 399L146 300Q124 311 104 325T67 357L137 471L16 522Q18 547 27 570T46 614L172 586L183 717Q197 719 208 720T229
722Q240 722 252 721T279 717L291 586L416 615ZM229 560Q212 560 191 563Q186 540 179 519T161 477Q179 466 196 454T231 426Q267 457 301 477Q291 499 285 520T273 562Q260 560 250 560T229 560Z" />
<glyph unicode="+" glyph-name="plus" horiz-adv-x="579" d="M218 282H71Q68 302 66 318T64 353Q64 370 66 387T71 425H218V584Q237 588 254 590T289 592Q306 592 323 590T361 584V425H507Q511 405 513 388T515 354Q515 337 513 320T507 282H361V123Q341 119 324
117T290 115Q258 115 218 123V282Z" />
<glyph unicode="," glyph-name="comma" horiz-adv-x="302" d="M93 160Q115 165 134 167T170 170Q186 170 209 168T259 158L183 -109Q159 -115 140 -116T106 -118Q90 -118 72 -116T24 -107L93 160Z" />
<glyph unicode="-" glyph-name="hyphen" horiz-adv-x="369" d="M42 273Q42 307 51 349H319Q324 328 325 310T327 274Q327 257 326 238T319 198H51Q42 240 42 273Z" />
<glyph unicode="." glyph-name="period" horiz-adv-x="296" d="M148 179Q168 179 189 177T233 172Q237 149 239 128T241 87Q241 67 239 46T233 2Q210 -2 189 -4T148 -6Q128 -6 107 -4T63 2Q59 25 57 46T55 87Q55 107 57 128T63 172Q86 175 107 177T148 179Z" />
<glyph unicode="/" glyph-name="slash" horiz-adv-x="416" d="M247 717Q268 721 287 723T326 725Q343 725 364 724T411 717L169 2Q148 -2 129 -4T90 -6Q73 -6 52 -5T5 2L247 717Z" />
<glyph unicode="0" glyph-name="zero" horiz-adv-x="598" d="M301 662Q368 662 417 636T498 565T545 457T560 323Q560 251 544 190T496 84T414 14T297 -12Q230 -12 181 13T101 84T54 190T38 323Q38 395 54 457T102 564T183 636T301 662ZM299 511Q259 511 237 464T215
323Q215 230 237 183T299 136Q337 136 359 183T381 323Q381 417 359 464T299 511Z" />
<glyph unicode="1" glyph-name="one" horiz-adv-x="536" d="M96 392Q87 405 78 422T61 457T47 493T38 529L331 654H374V150H502Q511 111 511 76Q511 39 502 0H74Q65 39 65 76Q65 111 74 150H204V434L96 392Z" />
<glyph unicode="2" glyph-name="two" horiz-adv-x="528" d="M28 0L16 29L194 263Q240 325 262 367T285 444Q285 475 263 493T200 512Q162 512 129 499T70 470Q54 505 42 541T28 615Q62 634 111 648T222 662Q273 662 316 650T392 614T442 552T460 464Q460 428 451
396T428 335T397 280T362 230L305 150H480Q489 108 489 77Q489 42 480 0H28Z" />
<glyph unicode="3" glyph-name="three" horiz-adv-x="539" d="M48 758Q39 797 39 834Q39 870 48 909H471L489 881L347 636Q419 623 459 574T499 446Q499 384 477 336T415 256T322 207T207 190Q179 190 155 191T108 197T61 208T10 226Q12 263 24 301T54 369Q92
356 127 348T201 339Q260 339 294 363T329 436Q329 457 320 473T296 499T262 515T222 521Q206 521 189 520T148 512L126 545L249 758H48Z" />
<glyph unicode="4" glyph-name="four" horiz-adv-x="627" d="M579 467Q588 428 588 393Q588 358 579 319H526V201Q505 196 485 195T445 193Q425 193 405 194T362 201V319H44L27 349L296 925Q335 920 372 908T445 868L263 467H362V579Q384 584 404 585T445 587Q464
587 484 586T526 579V467H579Z" />
<glyph unicode="5" glyph-name="five" horiz-adv-x="539" d="M449 909Q458 867 458 836Q458 801 449 759H238L236 655Q245 657 253 657T272 657Q321 657 362 643T432 602T477 535T493 443Q493 381 472 334T412 255T316 207T191 191Q178 191 159 193T115 198T65
208T13 224Q14 243 18 263T29 303T41 340T55 372Q94 358 126 351T188 343Q224 343 249 351T289 371T310 400T317 435Q317 473 290 496T204 519Q180 519 153 514T95 494L69 511L84 909H449Z" />
<glyph unicode="6" glyph-name="six" horiz-adv-x="596" d="M448 727Q456 719 463 699T470 649Q470 625 467 606T459 575Q420 572 385 561T321 530T271 486T238 430L241 428Q252 442 281 454T353 466Q396 466 433 453T499 413T544 342T561 238Q561 177 541 131T487
53T406 5T308 -11Q182 -11 116 61T50 279Q50 363 73 439T144 577T268 678T448 727ZM309 333Q271 333 247 308T223 235Q223 182 246 155T305 128Q341 128 366 153T391 230Q391 284 368 308T309 333Z" />
<glyph unicode="7" glyph-name="seven" horiz-adv-x="550" d="M34 758Q29 779 27 799T25 836Q25 867 34 909H520L535 882L250 183Q208 193 173 206T97 246L307 758H34Z" />
<glyph unicode="8" glyph-name="eight" horiz-adv-x="581" d="M514 526Q514 481 494 444T435 381Q481 356 512 311T544 199Q544 143 523 104T465 39T384 1T290 -11Q242 -11 197 1T116 38T59 103T37 199Q37 265 68 310T144 381Q105 407 86 444T66 526Q66 569 83
604T131 665T202 705T290 719Q338 719 379 705T450 666T497 605T514 526ZM377 206Q377 244 352 270T289 309Q251 296 228 270T204 206Q204 171 226 148T290 125Q334 125 355 148T377 206ZM224 527Q224 496 242 475T290 442Q321 453 339 474T357 527Q357 552 341
570T291 589Q258 589 241 571T224 527Z" />
<glyph unicode="9" glyph-name="nine" horiz-adv-x="596" d="M405 181Q397 189 390 209T383 259Q383 283 386 302T394 333Q433 336 468 347T532 377T582 421T615 478L612 480Q601 466 572 454T500 442Q457 442 420 455T354 495T309 566T292 670Q292 731 312 777T366
855T447 903T545 919Q671 919 737 847T803 629Q803 545 780 468T709 331T585 230T405 181ZM544 575Q582 575 606 600T630 673Q630 726 607 753T548 780Q512 780 487 755T462 678Q462 624 485 600T544 575Z" />
<glyph unicode=":" glyph-name="colon" horiz-adv-x="296" d="M148 179Q168 179 189 177T233 172Q237 149 239 128T241 87Q241 67 239 46T233 2Q210 -2 189 -4T148 -6Q128 -6 107 -4T63 2Q59 25 57 46T55 87Q55 107 57 128T63 172Q86 175 107 177T148 179ZM148
517Q168 517 189 515T233 510Q237 487 239 466T241 425Q241 405 239 384T233 340Q210 336 189 334T148 332Q128 332 107 334T63 340Q59 363 57 384T55 425Q55 445 57 466T63 510Q86 513 107 515T148 517Z" />
<glyph unicode=";" glyph-name="semicolon" horiz-adv-x="320" d="M343 160Q365 165 384 167T420 170Q436 170 459 168T509 158L433 -109Q409 -115 390 -116T356 -118Q340 -118 322 -116T274 -107L343 160ZM172 517Q192 517 213 515T257 510Q261 487 263 466T265
425Q265 405 263 384T257 340Q234 336 213 334T172 332Q152 332 131 334T87 340Q83 363 81 384T79 425Q79 445 81 466T87 510Q110 513 131 515T172 517Z" />
<glyph unicode="&lt;" glyph-name="less" horiz-adv-x="579" d="M240 353L500 266Q505 246 505 228T506 193Q506 186 506 175T504 152T502 129T498 108L83 277Q73 318 73 356Q73 393 83 429L498 598Q502 581 504 556T506 516Q506 499 506 482T500 445L240 353Z" />
<glyph unicode="=" glyph-name="equal" horiz-adv-x="579" d="M71 430Q68 450 66 466T64 501Q64 518 66 535T71 573H507Q511 553 513 536T515 502Q515 485 513 468T507 430H71ZM71 389Q68 409 66 425T64 460Q64 477 66 494T71 532H507Q511 512 513 495T515 461Q515
444 513 427T507 389H71Z" />
<glyph unicode="&gt;" glyph-name="greater" horiz-adv-x="579" d="M79 445Q74 465 74 482T73 516Q73 530 75 555T81 598L496 429Q506 393 506 356Q506 318 496 277L81 108Q79 117 78 128T75 152T74 175T73 193Q73 210 73 228T79 266L339 353L79 445Z" />
<glyph unicode="?" glyph-name="question" horiz-adv-x="479" d="M71 550Q65 563 59 580T47 615T38 650T33 683Q61 693 84 700T129 711T172 717T216 719Q337 719 398 664T459 512Q459 468 444 435T406 379T358 341T313 317V226Q291 223 270 221T232 219Q214 219
194 221T153 226V414Q179 417 204 423T248 441T280 468T292 508Q292 542 267 559T200 577Q181 577 166 576T137 571T106 562T71 550ZM229 179Q249 179 270 177T314 172Q318 149 320 128T322 87Q322 67 320 46T314 2Q291 -2 270 -4T229 -6Q209 -6 188 -4T144 2Q140
25 138 46T136 87Q136 107 138 128T144 172Q167 175 188 177T229 179Z" />
<glyph unicode="@" glyph-name="at" horiz-adv-x="982" d="M553 401Q545 402 539 402T525 403Q496 403 473 390T434 354T410 302T401 241Q401 203 417 186T460 169Q475 169 488 170T515 177L553 401ZM660 50Q589 50 551 85Q523 71 492 61T413 50Q381 50 352 60T301
90T267 143T254 219Q254 286 276 342T338 440T428 503T538 526Q581 526 625 519T712 496L650 169Q659 166 675 166Q709 166 735 186T780 239T807 310T817 387Q817 493 750 553T553 613Q463 613 392 581T271 494T196 369T170 224Q170 158 190 110T246 30T328 -17T428
-32Q478 -32 522 -25T605 -3Q630 -60 643 -109Q603 -129 540 -139T412 -150Q334 -150 265 -127T145 -58T63 57T32 221Q32 279 46 339T89 455T161 562T264 649T398 707T565 729Q646 729 716 708T838 643T920 536T950 387Q950 325 930 265T871 157T780 80T660 50Z"
/>
<glyph unicode="A" glyph-name="A" horiz-adv-x="642" d="M178 2Q155 -2 136 -4T99 -6Q81 -6 58 -4T5 4L229 718Q255 721 277 723T323 725Q342 725 364 723T416 718L637 3Q580 -6 537 -6Q517 -6 497 -4T454 2L416 141Q388 133 363 129T312 125Q289 125 265 128T215
139L178 2ZM318 530L251 273Q268 268 283 265T314 262Q331 262 347 264T382 272L318 530Z" />
<glyph unicode="B" glyph-name="B" horiz-adv-x="597" d="M566 210Q566 144 542 101T476 33T376 -2T250 -12Q196 -12 153 -8T60 2V717Q98 723 143 727T248 731Q305 731 354 722T441 690T499 630T521 535Q521 488 500 450T447 390Q470 381 491 367T529 331T556
279T566 210ZM233 302V134Q240 133 250 133T278 132Q297 132 316 136T352 149T377 175T387 217Q387 265 356 283T274 302H233ZM233 444H261Q304 444 328 461T352 522Q352 543 344 557T322 579T293 590T262 593Q256 593 248 593T233 592V444Z" />
<glyph unicode="C" glyph-name="C" horiz-adv-x="609" d="M228 358Q228 146 406 146Q438 146 466 152T536 172Q569 100 580 24Q551 13 526 6T478 -4T433 -9T386 -11Q301 -11 237 16T129 93T63 210T41 358Q41 438 64 506T130 625T238 703T383 731Q431 731 474 724T570
696Q568 655 555 617T528 549Q508 556 492 561T460 569T430 573T398 575Q317 575 273 521T228 358Z" />
<glyph unicode="D" glyph-name="D" horiz-adv-x="685" d="M259 731Q448 731 546 637T644 355Q644 165 544 77T248 -12Q198 -12 152 -8T60 3V717Q75 719 98 721T148 726T203 729T259 731ZM237 145Q244 144 253 144T272 144Q311 144 345 153T405 187T444 252T459
357Q459 420 444 462T405 528T347 563T278 574Q258 574 249 574T237 573V145Z" />
<glyph unicode="E" glyph-name="E" horiz-adv-x="527" d="M439 375Q439 340 430 297H237V155H488Q497 113 497 79Q497 42 488 0H60V719H482Q486 697 488 678T490 642Q490 609 482 563H237V453H430Q439 409 439 375Z" />
<glyph unicode="F" glyph-name="F" horiz-adv-x="510" d="M60 719H482Q486 697 488 678T490 642Q490 609 482 563H237V441H430Q439 396 439 363Q439 329 430 284H237V3Q184 -6 149 -6Q112 -6 60 3V719Z" />
<glyph unicode="G" glyph-name="G" horiz-adv-x="659" d="M434 389Q461 393 482 395T521 397Q538 397 562 395T609 389V25Q550 3 493 -4T394 -11Q306 -11 240 16T130 93T63 210T41 358Q41 438 64 506T130 625T238 703T383 731Q431 731 474 724T570 695Q568 654
555 615T528 549Q508 556 492 561T460 569T430 573T398 575Q317 575 273 521T229 358Q229 251 272 199T400 146Q419 146 434 149V389Z" />
<glyph unicode="H" glyph-name="H" horiz-adv-x="651" d="M503 -6Q466 -6 414 3V295H237V3Q184 -6 149 -6Q112 -6 60 3V717Q87 721 109 723T148 725Q166 725 188 723T237 717V452H414V717Q441 721 462 723T502 725Q520 725 542 723T591 717V3Q538 -6 503 -6Z" />
<glyph unicode="I" glyph-name="I" horiz-adv-x="297" d="M149 -6Q112 -6 60 3V717Q87 721 109 723T148 725Q166 725 188 723T237 717V3Q184 -6 149 -6Z" />
<glyph unicode="J" glyph-name="J" horiz-adv-x="411" d="M35 152Q44 150 62 147T100 144Q112 144 126 145T151 154T171 177T179 219V563H70Q61 605 61 642Q61 677 70 719H356V199Q356 142 338 102T289 36T217 0T127 -12Q98 -12 69 -8T17 4Q16 12 16 20T15 37Q15
95 35 152Z" />
<glyph unicode="K" glyph-name="K" horiz-adv-x="633" d="M446 372L633 3Q616 -1 588 -3T536 -6Q507 -6 480 -4T434 3L251 363L420 717Q450 722 472 723T517 725Q528 725 542 725T569 723T595 720T617 717L446 372ZM60 717Q87 721 109 723T148 725Q166 725 188
723T237 717V3Q184 -6 149 -6Q112 -6 60 3V717Z" />
<glyph unicode="L" glyph-name="L" horiz-adv-x="491" d="M60 717Q87 721 109 723T148 725Q166 725 188 723T237 717V157H468Q473 132 474 114T476 80Q476 63 475 45T468 0H60V717Z" />
<glyph unicode="M" glyph-name="M" horiz-adv-x="801" d="M81 717Q102 720 126 722T172 725Q192 725 215 723T259 717L401 345L548 717Q568 720 588 722T629 725Q650 725 672 723T715 717L749 3Q733 0 714 -3T662 -6Q627 -6 579 3L565 417L455 144Q437 141 419
139T386 137Q371 137 355 138T322 144L224 413L213 3Q171 -6 133 -6Q98 -6 52 3L81 717Z" />
<glyph unicode="N" glyph-name="N" horiz-adv-x="659" d="M60 717Q82 721 100 723T135 725Q153 725 172 723T206 717L438 325V717Q464 721 485 723T523 725Q540 725 559 723T599 717L598 3Q588 0 569 -3T528 -6Q503 -6 483 -3T454 3L221 393V3Q177 -6 141 -6Q105
-6 60 3V717Z" />
<glyph unicode="O" glyph-name="O" horiz-adv-x="711" d="M41 357Q41 437 59 505T116 624T214 702T356 731Q438 731 497 703T594 624T651 506T670 357Q670 277 652 210T595 93T497 16T356 -12Q274 -12 215 15T117 92T60 209T41 357ZM484 357Q484 575 357 575Q227
575 227 357Q227 248 258 195T356 141Q484 141 484 357Z" />
<glyph unicode="P" glyph-name="P" horiz-adv-x="585" d="M233 379Q238 377 250 376T275 375Q318 375 345 400T372 476Q372 506 364 526T340 559T305 577T263 582Q257 582 249 582T233 581V379ZM60 717Q83 720 130 725T250 731Q303 731 357 721T454 684T525 606T552
476Q552 405 531 358T474 283T393 243T299 231Q280 231 261 232T233 236V3Q207 -2 186 -4T147 -6Q112 -6 60 3V717Z" />
<glyph unicode="Q" glyph-name="Q" horiz-adv-x="711" d="M317 -169Q317 -149 317 -141T318 -125Q323 -76 346 -23L677 -77Q676 -115 670 -152T651 -226L317 -169ZM41 357Q41 437 59 505T116 624T214 702T356 731Q438 731 497 703T594 624T651 506T670 357Q670
277 652 210T595 93T497 16T356 -12Q274 -12 215 15T117 92T60 209T41 357ZM484 357Q484 575 357 575Q227 575 227 357Q227 248 258 195T356 141Q484 141 484 357Z" />
<glyph unicode="R" glyph-name="R" horiz-adv-x="616" d="M60 717Q109 722 150 726T238 731Q293 731 348 721T446 684T516 613T543 499Q543 462 535 433T513 380T483 340T450 311L606 3Q582 -1 554 -3T502 -5Q482 -5 456 -3T409 3L267 330L276 335Q288 341 302
355T329 388T350 432T359 482Q359 532 331 555T262 578Q252 578 245 577T236 575V3Q183 -6 149 -6Q112 -6 60 3V717Z" />
<glyph unicode="S" glyph-name="S" horiz-adv-x="564" d="M340 439Q382 422 415 405T473 363T510 304T523 220Q523 167 505 125T450 52T362 5T241 -12Q179 -12 132 -2T29 29Q33 64 43 103T67 184Q159 144 227 144Q278 144 306 159T335 213Q335 229 329 240T313
260T291 273T265 284L209 305Q173 318 144 336T93 378T61 435T49 510Q49 563 67 604T117 673T196 716T299 731Q350 731 397 721T499 692Q495 660 485 622T458 549Q432 560 397 572T310 584Q294 584 280 581T254 572T235 554T228 525Q228 496 247 482T292 458L340
439Z" />
<glyph unicode="T" glyph-name="T" horiz-adv-x="558" d="M191 563H24Q15 606 15 642Q15 675 24 719H535Q539 697 541 678T543 642Q543 609 535 563H368V3Q315 -6 280 -6Q243 -6 191 3V563Z" />
<glyph unicode="U" glyph-name="U" horiz-adv-x="662" d="M331 -11Q250 -11 197 11T112 74T69 175T56 308V717Q85 721 106 722T146 724Q163 724 183 723T233 717V329Q233 279 237 244T251 187T281 156T331 146Q362 146 381 155T411 187T425 244T429 329V717Q459
721 479 722T517 724Q535 724 556 723T606 717V308Q606 234 594 175T550 75T466 11T331 -11Z" />
<glyph unicode="V" glyph-name="V" horiz-adv-x="652" d="M328 233L465 717Q488 721 511 723T561 725Q578 725 603 723T647 717L417 2Q391 -2 369 -4T325 -6Q305 -6 284 -4T234 2L5 717Q22 720 50 722T104 725Q125 725 150 723T194 717L328 233Z" />
<glyph unicode="W" glyph-name="W" horiz-adv-x="896" d="M720 717Q746 722 764 723T801 725Q821 725 843 724T893 717L721 3Q706 0 683 -3T631 -6Q603 -6 577 -3T541 3L446 417L345 3Q336 1 312 -2T259 -6Q231 -6 209 -3T172 3L3 716Q31 721 57 723T103 725Q122
725 142 724T189 717L272 260Q297 370 322 489T371 717Q389 720 411 722T456 725Q476 725 497 723T533 717L637 255L720 717Z" />
<glyph unicode="X" glyph-name="X" horiz-adv-x="645" d="M39 717Q65 722 89 723T140 725Q157 725 184 723T227 717L322 370L419 717Q435 721 462 723T506 725Q532 725 556 724T606 717L489 374L633 3Q582 -6 532 -6Q515 -6 488 -4T445 3L322 360L200 3Q184 -1
157 -3T113 -6Q63 -6 12 3L157 374L39 717Z" />
<glyph unicode="Y" glyph-name="Y" horiz-adv-x="622" d="M433 717Q456 721 481 723T532 725Q549 725 576 723T622 717L399 258V3Q346 -6 311 -6Q274 -6 222 3V258Q196 312 168 370T111 487T54 604T0 717Q17 720 46 722T101 725Q122 725 147 723T192 717L315 439L433
717Z" />
<glyph unicode="Z" glyph-name="Z" horiz-adv-x="577" d="M529 79Q529 42 520 0H38L20 27L296 563H51Q46 585 45 604T43 640Q43 657 44 677T51 719H538L553 690L279 155H520Q529 113 529 79Z" />
<glyph unicode="[" glyph-name="bracketleft" horiz-adv-x="344" d="M314 -97Q314 -114 312 -130T305 -168H50V776H305Q310 756 312 740T314 706Q314 675 305 633H215V-25H305Q310 -46 312 -63T314 -97Z" />
<glyph unicode="\" glyph-name="backslash" horiz-adv-x="416" d="M411 2Q385 -3 364 -4T326 -6Q306 -6 287 -4T247 2L5 717Q31 722 52 723T90 725Q110 725 129 723T169 717L411 2Z" />
<glyph unicode="]" glyph-name="bracketright" horiz-adv-x="344" d="M30 -97Q30 -80 32 -63T39 -25H129V633H39Q30 675 30 706Q30 723 32 739T39 776H294V-168H39Q34 -147 32 -131T30 -97Z" />
<glyph unicode="^" glyph-name="asciicircum" horiz-adv-x="549" d="M273 549L202 365Q185 361 165 359T119 356Q82 356 40 365L202 717Q215 720 237 722T276 725Q292 725 314 723T351 717L509 365Q467 356 430 356Q405 356 385 358T347 365L273 549Z" />
<glyph unicode="_" glyph-name="underscore" horiz-adv-x="500" d="M492 -2Q497 -23 498 -38T500 -68Q500 -79 498 -92T491 -130H8Q3 -109 2 -94T0 -64Q0 -53 2 -39T9 -2H492Z" />
<glyph unicode="`" glyph-name="grave" horiz-adv-x="480" d="M94 709Q112 712 136 713T187 715Q240 715 279 709L386 586Q369 582 351 581T313 580Q270 580 240 586L94 709Z" />
<glyph unicode="a" glyph-name="a" horiz-adv-x="523" d="M30 169Q30 218 51 250T105 301T178 327T256 335H317Q316 353 307 365T284 383T253 392T218 395Q194 395 162 390T96 372Q87 389 81 403T71 431T66 461T64 497Q112 513 159 521T245 529Q297 529 339 517T410
478T456 412T472 315V22Q434 11 380 0T266 -11Q214 -11 171 -2T96 29T48 84T30 169ZM266 113Q275 113 292 115T317 119V229H260Q225 229 201 214T177 172Q177 152 186 141T208 123T237 115T266 113Z" />
<glyph unicode="b" glyph-name="b" horiz-adv-x="562" d="M56 515Q76 518 102 520T155 525T207 528T252 529Q377 529 439 494T501 383Q501 345 484 319T436 273Q478 258 505 230T532 151Q532 59 464 24T263 -12Q228 -12 172 -10T56 1V515ZM223 214V111Q226 111
239 110T274 109Q316 109 334 123T352 162Q352 172 349 181T336 198T311 209T269 214H223ZM223 319H272Q310 319 323 335T336 370Q336 387 323 401T273 416Q262 416 248 416T223 414V319Z" />
<glyph unicode="c" glyph-name="c" horiz-adv-x="471" d="M31 258Q31 318 48 368T98 453T179 509T289 529Q310 529 329 528T366 524T404 515T448 500Q450 466 442 433T417 367Q400 373 387 376T361 382T338 384T313 385Q265 385 234 357T202 258Q202 221 211 197T236
158T272 138T316 132Q345 132 366 137T417 153Q434 126 444 93T454 16Q408 -2 370 -7T294 -12Q230 -12 181 7T99 61T48 146T31 258Z" />
<glyph unicode="d" glyph-name="d" horiz-adv-x="568" d="M233 529Q314 529 371 510T466 457T520 373T537 264Q537 201 520 150T465 63T368 8T224 -12Q175 -12 137 -9T56 1V515Q98 520 145 524T233 529ZM225 131Q229 131 235 130T255 129Q311 129 338 160T366
264Q366 328 339 357T262 387Q250 387 240 386T225 384V131Z" />
<glyph unicode="e" glyph-name="e" horiz-adv-x="538" d="M201 205Q212 164 239 147T312 130Q341 130 377 137T448 158Q462 132 472 96T484 21Q395 -12 302 -12Q230 -12 179 8T95 63T47 148T31 255Q31 312 47 362T95 449T175 507T287 529Q340 529 381 511T452
462T496 386T512 289Q512 262 510 241T505 205H201ZM281 402Q249 402 226 382T199 320H359Q357 355 338 378T281 402Z" />
<glyph unicode="f" glyph-name="f" horiz-adv-x="461" d="M225 155V2Q204 -3 182 -4T141 -6Q121 -6 100 -5T56 2V517H438Q443 497 444 480T446 447Q446 431 445 414T438 376H225V296H397Q402 276 403 259T405 226Q405 210 404 193T397 155H225Z" />
<glyph unicode="g" glyph-name="g" horiz-adv-x="536" d="M297 -12Q225 -12 175 9T92 68T46 155T31 262Q31 317 48 366T100 451T186 508T304 529Q339 529 381 521T473 493Q472 476 469 461T462 431T451 398T435 358Q401 372 372 378T322 385Q289 385 266 375T229
348T209 309T202 262Q202 195 231 164T316 132H334V279Q359 284 378 286T416 288Q451 288 499 279V25Q470 14 418 1T297 -12Z" />
<glyph unicode="h" glyph-name="h" horiz-adv-x="598" d="M373 191H225V1Q199 -3 178 -5T140 -7Q123 -7 102 -5T56 1V517Q78 522 99 524T141 526Q160 526 182 524T225 517V341H373V517Q395 522 416 524T458 526Q477 526 499 524T542 517V1Q516 -3 495 -5T457 -7Q440
-7 419 -5T373 1V191Z" />
<glyph unicode="i" glyph-name="i" horiz-adv-x="281" d="M225 1Q199 -3 178 -5T140 -7Q123 -7 102 -5T56 1V517Q78 522 99 524T141 526Q160 526 182 524T225 517V1Z" />
<glyph unicode="j" glyph-name="j" horiz-adv-x="377" d="M60 376Q55 396 54 413T52 447Q52 463 53 480T60 517H329V199Q329 142 313 102T267 36T198 0T112 -12Q97 -12 70 -9T12 5Q11 13 11 20T10 36Q10 62 15 88T29 142Q33 141 41 140T58 137T76 135T90 134Q101
134 113 135T136 144T153 167T160 209V376H60Z" />
<glyph unicode="k" glyph-name="k" horiz-adv-x="563" d="M56 517Q78 522 99 524T141 526Q160 526 182 524T225 517V2Q199 -3 178 -4T141 -6Q124 -6 103 -5T56 2V517ZM359 517Q377 521 403 523T449 525Q475 525 501 523T544 517L420 277L558 2Q540 -2 513 -4T466
-6Q440 -6 415 -4T374 2L241 270L359 517Z" />
<glyph unicode="l" glyph-name="l" horiz-adv-x="437" d="M225 141H414Q419 121 420 104T422 71Q422 55 421 38T414 0H56L57 517Q79 522 100 524T142 526Q161 526 183 524T226 517L225 141Z" />
<glyph unicode="m" glyph-name="m" horiz-adv-x="842" d="M264 527Q305 527 345 521T419 494Q445 507 480 517T559 527Q598 527 639 520T714 488T769 419T791 300V1Q765 -4 744 -5T707 -7Q690 -7 669 -6T622 1V282Q622 335 604 358T545 381Q531 381 518 378T499
373Q508 338 508 293V1Q482 -4 461 -5T424 -7Q407 -7 386 -6T339 1V282Q339 335 322 358T264 381Q253 381 241 379T225 375V1Q199 -4 178 -5T141 -7Q124 -7 103 -6T56 1V492Q91 504 140 515T264 527Z" />
<glyph unicode="n" glyph-name="n" horiz-adv-x="565" d="M266 527Q310 527 354 520T433 488T491 419T514 300V1Q488 -4 467 -5T430 -7Q413 -7 392 -6T345 1V282Q345 335 325 358T264 381Q253 381 241 379T225 375V1Q199 -4 178 -5T141 -7Q124 -7 103 -6T56 1V492Q91
504 141 515T266 527Z" />
<glyph unicode="o" glyph-name="o" horiz-adv-x="577" d="M31 256Q31 317 47 367T96 454T177 509T288 529Q352 529 400 510T480 454T529 368T546 256Q546 196 530 147T481 62T400 7T288 -12Q225 -12 177 7T97 61T48 146T31 256ZM375 256Q375 320 354 354T288 388Q244
388 223 354T202 256Q202 193 223 159T288 125Q332 125 353 159T375 256Z" />
<glyph unicode="p" glyph-name="p" horiz-adv-x="516" d="M221 250Q226 249 233 249T246 248Q281 248 303 265T326 325Q326 361 304 380T248 400Q244 400 237 400T221 399V250ZM56 515Q102 522 150 525T244 529Q290 529 334 521T413 490T469 428T491 325Q491 268
472 229T420 166T348 132T265 121Q248 121 236 122T221 124V1Q195 -4 175 -5T138 -7Q121 -7 102 -6T56 1V515Z" />
<glyph unicode="q" glyph-name="q" horiz-adv-x="577" d="M256 -139Q257 -110 262 -79T278 -20L551 -59Q550 -88 545 -119T529 -178L256 -139ZM31 256Q31 317 47 367T96 454T177 509T288 529Q352 529 400 510T480 454T529 368T546 256Q546 196 530 147T481 62T400
7T288 -12Q225 -12 177 7T97 61T48 146T31 256ZM375 256Q375 320 354 354T288 388Q244 388 223 354T202 256Q202 193 223 159T288 125Q332 125 353 159T375 256Z" />
<glyph unicode="r" glyph-name="r" horiz-adv-x="549" d="M56 515Q103 521 153 525T249 529Q370 529 430 484T491 356Q491 325 484 302T467 263T446 236T428 220L542 2Q522 -2 498 -4T450 -6Q422 -6 396 -4T353 2L242 238L256 246Q291 266 304 288T317 337Q317
363 302 379T252 396Q233 396 223 394V1Q197 -4 176 -5T139 -7Q122 -7 102 -6T56 1V515Z" />
<glyph unicode="s" glyph-name="s" horiz-adv-x="470" d="M305 324Q335 316 359 305T401 275T429 231T439 168Q439 130 424 97T378 40T303 2T200 -12Q152 -12 111 -5T24 19Q29 87 61 157Q93 142 128 135T198 127Q210 127 223 128T246 132T262 142T269 158Q269
171 256 177T226 189L158 208Q105 223 70 259T35 357Q35 396 51 428T96 482T164 517T252 529Q290 529 335 521T424 498Q422 466 411 430T386 365Q359 376 321 385T251 394Q204 394 204 368Q204 357 215 351T240 341L305 324Z" />
<glyph unicode="t" glyph-name="t" horiz-adv-x="511" d="M171 376H23Q18 396 17 413T15 447Q15 463 16 480T23 517H488Q493 497 494 480T496 447Q496 431 495 414T488 376H340V1Q314 -3 293 -5T255 -7Q238 -7 217 -5T171 1V376Z" />
<glyph unicode="u" glyph-name="u" horiz-adv-x="565" d="M509 24Q492 18 469 12T419 1T364 -8T309 -11Q258 -11 211 -3T129 29T72 100T51 225V517Q73 522 94 524T136 526Q155 526 177 524T220 517V239Q220 179 240 157T301 135Q318 135 327 136T340 138V517Q362
522 383 524T425 526Q444 526 466 524T509 517V24Z" />
<glyph unicode="v" glyph-name="v" horiz-adv-x="561" d="M371 517Q379 519 404 521T455 523Q488 523 516 521T556 517L360 2Q339 -3 318 -4T276 -6Q256 -6 235 -5T197 2L5 517Q16 519 44 521T106 523Q132 523 158 521T192 517L283 207Q306 284 327 363T371 517Z" />
<glyph unicode="w" glyph-name="w" horiz-adv-x="799" d="M556 219L618 517Q626 519 649 521T698 523Q731 523 756 521T793 517L631 2Q614 -3 594 -4T554 -6Q534 -6 514 -5T471 2L398 282Q379 215 360 141T322 2Q301 -3 281 -4T240 -6Q220 -6 200 -5T163 2L6 517Q17
519 44 521T105 523Q131 523 155 521T188 517L253 211L325 517Q342 522 362 523T403 525Q423 525 443 524T485 517L556 219Z" />
<glyph unicode="x" glyph-name="x" horiz-adv-x="536" d="M268 277L334 517Q342 519 365 521T415 523Q448 523 474 521T511 517L421 269L531 1Q520 -1 497 -3T443 -6Q414 -6 391 -4T360 1L268 257L176 1Q168 -1 146 -3T98 -6Q65 -6 41 -3T5 2L115 269L25 517Q36
519 61 521T120 523Q146 523 169 521T201 517L268 277Z" />
<glyph unicode="y" glyph-name="y" horiz-adv-x="564" d="M384 517Q392 519 414 521T463 523Q496 523 522 521T559 517L366 182V1Q340 -3 319 -5T281 -7Q264 -7 243 -5T197 1V182L5 517Q16 519 43 521T104 523Q130 523 155 521T188 517L286 320L384 517Z" />
<glyph unicode="z" glyph-name="z" horiz-adv-x="481" d="M252 137H443Q450 96 450 67Q450 52 449 37T443 0H23L7 30L216 380H45Q40 402 39 418T37 450Q37 465 38 480T45 517H452L462 485L252 137Z" />
<glyph unicode="{" glyph-name="braceleft" horiz-adv-x="430" d="M45 335Q70 347 86 359T113 388T127 424T132 470L135 570Q137 621 147 661T180 730T241 773T340 788Q350 788 359 788T386 786Q395 745 395 717Q395 687 386 647H355Q335 647 323 640T305 619T298
582T296 529Q296 475 292 439T280 379T260 340T232 312Q248 300 260 285T280 245T292 184T296 94Q296 63 297 41T305 5T323 -17T355 -24H386Q395 -65 395 -94Q395 -123 386 -163Q369 -165 360 -165T340 -165Q280 -165 242 -150T180 -107T147 -39T135 53L132 154Q131
180 127 200T113 235T87 264T45 289V335Z" />
<glyph unicode="|" glyph-name="bar" horiz-adv-x="349" d="M175 -174Q141 -174 92 -165V774Q117 778 137 780T174 782Q191 782 212 780T257 774V-165Q207 -174 175 -174Z" />
<glyph unicode="}" glyph-name="braceright" horiz-adv-x="430" d="M385 289Q360 277 344 264T317 236T303 200T298 154L295 53Q293 2 283 -38T250 -107T189 -150T90 -165Q80 -165 71 -165T44 -163Q35 -123 35 -94Q35 -65 44 -24H75Q95 -24 107 -17T125 4T132
41T134 94Q134 148 138 184T150 244T170 284T198 312Q182 324 170 339T150 379T138 439T134 529Q134 560 133 582T125 618T107 640T75 647H44Q35 687 35 717Q35 745 44 786Q61 788 70 788T90 788Q150 788 188 773T250 730T283 662T295 570L298 470Q299 444 303
424T317 388T343 360T385 335V289Z" />
<glyph unicode="~" glyph-name="asciitilde" horiz-adv-x="466" d="M150 495Q173 495 194 489T237 475Q256 469 275 463T314 457Q323 457 331 458T348 464T369 476T394 497Q420 472 437 442T464 384Q439 355 401 336T315 316Q291 316 269 322T224 336Q204 342
186 347T151 353Q142 353 134 352T116 347T97 335T71 314Q47 339 29 367T2 426Q26 454 64 474T150 495Z" />
</font>
</defs>
</svg>
